<svg width="33" height="15" viewBox="0 0 33 15" fill="none" xmlns="http://www.w3.org/2000/svg">
<path d="M6.38086 14L2.06086 2.94V14H0.380859V0.899999H3.10086L7.34086 11.96V0.899999H9.02086V14H6.38086ZM15.1215 4C16.2415 4 17.0948 4.30667 17.6815 4.92C18.2682 5.53333 18.5615 6.42 18.5615 7.58V9.64H13.4215V10.82C13.4215 11.5 13.5815 11.9933 13.9015 12.3C14.2348 12.5933 14.7548 12.74 15.4615 12.74C16.1548 12.74 17.0215 12.6333 18.0615 12.42L18.1015 13.9C16.8615 14.1267 15.9748 14.24 15.4415 14.24C14.1215 14.24 13.1682 13.9533 12.5815 13.38C12.0082 12.8067 11.7215 11.92 11.7215 10.72V7.58C11.7215 6.42 12.0015 5.53333 12.5615 4.92C13.1348 4.30667 13.9882 4 15.1215 4ZM15.1215 5.42C14.6015 5.42 14.1882 5.58667 13.8815 5.92C13.5748 6.24 13.4215 6.70667 13.4215 7.32V8.28H16.8615V7.38C16.8615 6.74 16.7015 6.25333 16.3815 5.92C16.0748 5.58667 15.6548 5.42 15.1215 5.42ZM32.7245 4.24L30.4645 14H28.3245L26.3445 5.72L24.3445 14H22.2045L19.9645 4.24H21.7645L23.3445 12.5L25.2445 4.24H27.4445L29.3245 12.5L30.9245 4.24H32.7245Z" fill="white"/>
</svg>
