<svg width="30" height="15" viewBox="0 0 30 15" fill="none" xmlns="http://www.w3.org/2000/svg">
<path d="M3.95969 0.659999C4.67969 0.659999 5.61969 0.766666 6.77969 0.98L6.73969 2.48C5.64635 2.26667 4.71969 2.16 3.95969 2.16C3.18635 2.16 2.62635 2.31333 2.27969 2.62C1.94635 2.92667 1.77969 3.39333 1.77969 4.02V4.54C1.77969 4.87333 1.81969 5.14 1.89969 5.34C1.99302 5.52667 2.15302 5.69333 2.37969 5.84C2.60635 5.97333 2.94635 6.11333 3.39969 6.26L5.25969 6.88C6.15302 7.18667 6.77969 7.59333 7.13969 8.1C7.51302 8.60667 7.69969 9.34667 7.69969 10.32V10.7C7.69969 11.8867 7.35302 12.7733 6.65969 13.36C5.97969 13.9467 4.85969 14.24 3.29969 14.24C2.53969 14.24 1.56635 14.1067 0.379688 13.84L0.419688 12.3C1.52635 12.5667 2.47302 12.7 3.25969 12.7C4.25969 12.7 4.96635 12.5533 5.37969 12.26C5.79302 11.9533 5.99969 11.48 5.99969 10.84V10.18C5.99969 9.71333 5.89302 9.36 5.67969 9.12C5.47969 8.86667 5.11969 8.65333 4.59969 8.48L2.53969 7.8C1.61969 7.49333 0.979688 7.1 0.619688 6.62C0.259688 6.12667 0.0796875 5.38667 0.0796875 4.4V4.18C0.0796875 3.02 0.386354 2.14667 0.999688 1.56C1.62635 0.959999 2.61302 0.659999 3.95969 0.659999ZM12.7784 4C13.9251 4 14.7584 4.26 15.2784 4.78C15.8118 5.28667 16.0784 6.1 16.0784 7.22V14H14.4584V12.44C13.6851 13.64 12.8118 14.24 11.8384 14.24C11.0651 14.24 10.4451 13.9733 9.97844 13.44C9.5251 12.9067 9.29844 12.18 9.29844 11.26V10.7C9.29844 9.9 9.57177 9.24 10.1184 8.72C10.6651 8.18667 11.3984 7.92 12.3184 7.92C12.8251 7.92 13.5118 8.00667 14.3784 8.18V7.08C14.3784 6.50667 14.2451 6.09333 13.9784 5.84C13.7251 5.58667 13.3251 5.46 12.7784 5.46C12.1384 5.46 11.2384 5.56 10.0784 5.76V4.3C11.3318 4.1 12.2318 4 12.7784 4ZM12.7384 9.24C12.1784 9.24 11.7518 9.38667 11.4584 9.68C11.1651 9.97333 11.0184 10.3867 11.0184 10.92V11.14C11.0184 11.6333 11.1318 12.02 11.3584 12.3C11.5851 12.58 11.8718 12.72 12.2184 12.72C12.5784 12.72 12.9451 12.5667 13.3184 12.26C13.7051 11.94 14.0584 11.4933 14.3784 10.92V9.38C13.8718 9.28667 13.3251 9.24 12.7384 9.24ZM20.4828 0.339999V14H18.7828V0.339999H20.4828ZM26.475 4C27.595 4 28.4483 4.30667 29.035 4.92C29.6217 5.53333 29.915 6.42 29.915 7.58V9.64H24.775V10.82C24.775 11.5 24.935 11.9933 25.255 12.3C25.5883 12.5933 26.1083 12.74 26.815 12.74C27.5083 12.74 28.375 12.6333 29.415 12.42L29.455 13.9C28.215 14.1267 27.3283 14.24 26.795 14.24C25.475 14.24 24.5217 13.9533 23.935 13.38C23.3617 12.8067 23.075 11.92 23.075 10.72V7.58C23.075 6.42 23.355 5.53333 23.915 4.92C24.4883 4.30667 25.3417 4 26.475 4ZM26.475 5.42C25.955 5.42 25.5417 5.58667 25.235 5.92C24.9283 6.24 24.775 6.70667 24.775 7.32V8.28H28.215V7.38C28.215 6.74 28.055 6.25333 27.735 5.92C27.4283 5.58667 27.0083 5.42 26.475 5.42Z" fill="white"/>
</svg>
