<svg width="95" height="23" viewBox="0 0 95 23" fill="none" xmlns="http://www.w3.org/2000/svg">
<path d="M12.4402 1.625L7.69023 12.375V18H5.56523V12.375L0.815234 1.625H3.24023L6.64023 10.125L10.0652 1.625H12.4402ZM17.0836 5.5C18.5669 5.5 19.6669 5.9 20.3836 6.7C21.1169 7.48333 21.4836 8.6 21.4836 10.05V13.75C21.4836 15.2 21.1169 16.325 20.3836 17.125C19.6669 17.9083 18.5669 18.3 17.0836 18.3C15.6003 18.3 14.4919 17.9083 13.7586 17.125C13.0419 16.325 12.6836 15.2 12.6836 13.75V10.05C12.6836 8.6 13.0419 7.48333 13.7586 6.7C14.4919 5.9 15.6003 5.5 17.0836 5.5ZM17.0836 7.275C16.3669 7.275 15.8086 7.5 15.4086 7.95C15.0086 8.4 14.8086 9.04167 14.8086 9.875V13.925C14.8086 14.7583 15.0086 15.4 15.4086 15.85C15.8086 16.3 16.3669 16.525 17.0836 16.525C17.8003 16.525 18.3586 16.3 18.7586 15.85C19.1586 15.4 19.3586 14.7583 19.3586 13.925V9.85C19.3586 9.01667 19.1586 8.38333 18.7586 7.95C18.3586 7.5 17.8003 7.275 17.0836 7.275ZM33.2256 18H31.2256V16.25C30.7756 16.9167 30.2756 17.425 29.7256 17.775C29.1756 18.125 28.5923 18.3 27.9756 18.3C26.9589 18.3 26.1589 17.95 25.5756 17.25C25.0089 16.5333 24.7256 15.4917 24.7256 14.125V5.8H26.8506V13.75C26.8506 14.6333 26.9839 15.2833 27.2506 15.7C27.5339 16.1167 27.9173 16.325 28.4006 16.325C28.8506 16.325 29.3173 16.15 29.8006 15.8C30.3006 15.4333 30.7339 14.9333 31.1006 14.3V5.8H33.2256V18ZM42.0623 5.5C42.2956 5.5 42.479 5.51667 42.6123 5.55V7.95C42.3623 7.9 42.0373 7.875 41.6373 7.875C40.4706 7.875 39.5456 8.45833 38.8623 9.625V18H36.7373V5.8H38.7373V7.625C39.1873 6.94167 39.6873 6.41667 40.2373 6.05C40.804 5.68333 41.4123 5.5 42.0623 5.5ZM53.5844 1.325C54.4844 1.325 55.6594 1.45833 57.1094 1.725L57.0594 3.6C55.6927 3.33333 54.5344 3.2 53.5844 3.2C52.6177 3.2 51.9177 3.39167 51.4844 3.775C51.0677 4.15833 50.8594 4.74167 50.8594 5.525V6.175C50.8594 6.59167 50.9094 6.925 51.0094 7.175C51.126 7.40833 51.326 7.61667 51.6094 7.8C51.8927 7.96667 52.3177 8.14167 52.8844 8.325L55.2094 9.1C56.326 9.48333 57.1094 9.99167 57.5594 10.625C58.026 11.2583 58.2594 12.1833 58.2594 13.4V13.875C58.2594 15.3583 57.826 16.4667 56.9594 17.2C56.1094 17.9333 54.7094 18.3 52.7594 18.3C51.8094 18.3 50.5927 18.1333 49.1094 17.8L49.1594 15.875C50.5427 16.2083 51.726 16.375 52.7094 16.375C53.9594 16.375 54.8427 16.1917 55.3594 15.825C55.876 15.4417 56.1344 14.85 56.1344 14.05V13.225C56.1344 12.6417 56.001 12.2 55.7344 11.9C55.4844 11.5833 55.0344 11.3167 54.3844 11.1L51.8094 10.25C50.6594 9.86667 49.8594 9.375 49.4094 8.775C48.9594 8.15833 48.7344 7.23333 48.7344 6V5.725C48.7344 4.275 49.1177 3.18333 49.8844 2.45C50.6677 1.7 51.901 1.325 53.5844 1.325ZM63.3828 5.8H66.6328V7.55H63.3828V14.7C63.3828 15.3333 63.5078 15.7917 63.7578 16.075C64.0245 16.3417 64.4328 16.475 64.9828 16.475C65.6828 16.475 66.3661 16.3917 67.0328 16.225L67.0828 18C66.3495 18.2 65.6828 18.3 65.0828 18.3C63.7495 18.3 62.7745 18.0083 62.1578 17.425C61.5578 16.825 61.2578 15.8583 61.2578 14.525V7.55H59.5078V5.8H61.2578L61.6578 2.55H63.3828V5.8ZM78.4742 5.8L72.8742 22.625H70.7492L72.3492 18H71.5492L68.0742 5.8H70.3992L73.0242 16.475L76.2742 5.8H78.4742ZM82.5879 0.924999V18H80.4629V0.924999H82.5879ZM90.0781 5.5C91.4781 5.5 92.5448 5.88333 93.2781 6.65C94.0115 7.41667 94.3781 8.525 94.3781 9.975V12.55H87.9531V14.025C87.9531 14.875 88.1531 15.4917 88.5531 15.875C88.9698 16.2417 89.6198 16.425 90.5031 16.425C91.3698 16.425 92.4531 16.2917 93.7531 16.025L93.8031 17.875C92.2531 18.1583 91.1448 18.3 90.4781 18.3C88.8281 18.3 87.6365 17.9417 86.9031 17.225C86.1865 16.5083 85.8281 15.4 85.8281 13.9V9.975C85.8281 8.525 86.1781 7.41667 86.8781 6.65C87.5948 5.88333 88.6615 5.5 90.0781 5.5ZM90.0781 7.275C89.4281 7.275 88.9115 7.48333 88.5281 7.9C88.1448 8.3 87.9531 8.88333 87.9531 9.65V10.85H92.2531V9.725C92.2531 8.925 92.0531 8.31667 91.6531 7.9C91.2698 7.48333 90.7448 7.275 90.0781 7.275Z" fill="#888888"/>
</svg>
